<svg width="81" height="81" viewBox="0 0 81 81" fill="none" xmlns="http://www.w3.org/2000/svg">
<path d="M41 80.91C33.0811 80.9278 25.3351 78.5947 18.7434 74.2063C12.1517 69.8178 7.01081 63.5716 3.97216 56.2589C0.933502 48.9462 0.133785 40.8961 1.67432 33.1285C3.21486 25.3609 7.02633 18.2253 12.6258 12.6258C18.2254 7.02627 25.3609 3.2148 33.1285 1.67426C40.8962 0.133724 48.9463 0.933441 56.259 3.9721C63.5717 7.01075 69.8179 12.1516 74.2063 18.7433C78.5947 25.3351 80.9278 33.0811 80.91 41C80.8862 51.5774 76.6738 61.7149 69.1944 69.1943C61.715 76.6738 51.5775 80.8862 41 80.91ZM41 3.54995C33.6006 3.54007 26.3644 5.72471 20.2067 9.82759C14.0489 13.9305 9.24622 19.7673 6.4059 26.5999C3.56559 33.4324 2.81528 40.9539 4.24986 48.2129C5.68444 55.4719 9.23948 62.1425 14.4654 67.3809C19.6912 72.6194 26.3532 76.1905 33.6088 77.6425C40.8643 79.0946 48.3875 78.3624 55.2269 75.5385C62.0663 72.7146 67.9147 67.926 72.0324 61.7781C76.15 55.6303 78.3521 48.3994 78.36 41C78.36 31.0832 74.4268 21.5712 67.423 14.5506C60.4192 7.52992 50.9168 3.57378 41 3.54995V3.54995Z" fill="white"/>
<path d="M41.41 66.9999C40.26 66.9883 39.1154 66.8406 38 66.5599C36.6776 66.2389 35.4453 65.6221 34.3956 64.7561C33.346 63.8901 32.5064 62.7973 31.94 61.5599L16.78 28.0899C16.518 27.496 16.3827 26.8541 16.3827 26.2049C16.3827 25.5558 16.518 24.9138 16.78 24.3199C17.0439 23.7135 17.4308 23.1684 17.9162 22.7191C18.4016 22.2698 18.975 21.9262 19.6 21.7099C22.7002 20.7182 26.0172 20.6211 29.17 21.4299C30.3608 21.7806 31.4599 22.3888 32.3896 23.2113C33.3193 24.0339 34.0569 25.0508 34.55 26.1899C37 31.9999 41.11 42.5999 44.13 50.3299L46.25 55.7399C46.389 56.0942 46.6296 56.3995 46.9415 56.6174C47.2535 56.8353 47.6229 56.9562 48.0034 56.9647C48.3839 56.9733 48.7583 56.8692 49.0798 56.6655C49.4012 56.4618 49.6553 56.1676 49.81 55.8199L62.74 27.2699C62.9014 26.9631 62.9907 26.6234 63.0011 26.2769C63.0115 25.9303 62.9428 25.5859 62.8 25.2699C62.5963 24.9146 62.3153 24.6097 61.9777 24.3777C61.6402 24.1457 61.2548 23.9927 60.85 23.9299C58.8502 23.4983 56.7941 23.3903 54.76 23.6099C53.6757 23.7046 52.6376 24.0924 51.7568 24.7318C50.8761 25.3713 50.1858 26.2383 49.76 27.2399L44.76 39.9099L42.37 38.9999L47.37 26.3299C47.9562 24.893 48.9272 23.6456 50.1762 22.7247C51.4253 21.8038 52.9041 21.245 54.45 21.1099C56.7511 20.8581 59.0777 20.9796 61.34 21.4699C62.116 21.6131 62.8502 21.9282 63.4887 22.3919C64.1271 22.8556 64.6538 23.4563 65.03 24.1499C65.3505 24.8036 65.5172 25.5219 65.5172 26.2499C65.5172 26.9779 65.3505 27.6963 65.03 28.3499L52.13 56.8699C51.7685 57.6727 51.1785 58.3511 50.4336 58.8204C49.6888 59.2898 48.8222 59.5293 47.9421 59.509C47.0619 59.4887 46.2073 59.2096 45.4848 58.7064C44.7624 58.2033 44.2042 57.4984 43.88 56.6799C43.28 55.1399 42.56 53.2899 41.76 51.2599C38.76 43.5399 34.62 32.9599 32.16 27.1799C31.814 26.4009 31.3059 25.7045 30.6696 25.1372C30.0333 24.5699 29.2835 24.1447 28.47 23.8899C25.8077 23.2138 23.0096 23.2934 20.39 24.1199C20.1 24.2173 19.8335 24.3744 19.6079 24.5811C19.3822 24.7878 19.2024 25.0395 19.08 25.3199C18.9586 25.5904 18.8959 25.8835 18.8959 26.1799C18.8959 26.4764 18.9586 26.7695 19.08 27.0399L34.24 60.4699C34.6414 61.3602 35.2397 62.1477 35.9897 62.773C36.7398 63.3984 37.6221 63.8453 38.57 64.0799C40.3118 64.5028 42.1263 64.5302 43.88 64.1599C45.0138 63.955 46.0321 63.339 46.74 62.4299C46.923 62.1462 47.2113 61.9467 47.5413 61.8754C47.7048 61.8401 47.8735 61.8374 48.038 61.8673C48.2025 61.8973 48.3595 61.9593 48.5 62.0499C48.6405 62.1405 48.7618 62.2579 48.857 62.3954C48.9521 62.5329 49.0192 62.6878 49.0545 62.8512C49.0898 63.0147 49.0926 63.1834 49.0626 63.3479C49.0327 63.5124 48.9706 63.6694 48.88 63.8099C47.8152 65.2963 46.2173 66.3138 44.42 66.6499C43.4319 66.873 42.4229 66.9903 41.41 66.9999V66.9999Z" fill="white"/>
</svg>
